<?xml version="1.0" encoding="UTF-8"?>
<!DOCTYPE svg PUBLIC "-//W3C//DTD SVG 1.1//EN" "http://www.w3.org/Graphics/SVG/1.1/DTD/svg11.dtd">
<svg xmlns="http://www.w3.org/2000/svg" version="1.1" width="1320px" height="530px" style="shape-rendering:geometricPrecision; text-rendering:geometricPrecision; image-rendering:optimizeQuality; fill-rule:evenodd; clip-rule:evenodd" xmlns:xlink="http://www.w3.org/1999/xlink">
<g><path style="opacity:0.8" fill="#000000" d="M 438.5,38.5 C 440.451,38.2267 441.951,38.8934 443,40.5C 443.667,188.167 443.667,335.833 443,483.5C 441.951,485.107 440.451,485.773 438.5,485.5C 438.5,336.5 438.5,187.5 438.5,38.5 Z"/></g>
<g><path style="opacity:0.938" fill="#120c03" d="M 362.5,159.5 C 360.847,159.66 359.514,160.326 358.5,161.5C 357.833,161.5 357.5,161.833 357.5,162.5C 303.313,192.845 249.48,223.845 196,255.5C 195.5,318.832 195.333,382.166 195.5,445.5C 195.5,446.833 195.5,448.167 195.5,449.5C 195.631,450.239 195.464,450.906 195,451.5C 139.016,419.228 82.5162,386.895 25.5,354.5C 24.8299,289.129 24.1632,223.795 23.5,158.5C 79.8761,124.889 136.709,91.8891 194,59.5C 249.667,91.8333 305.333,124.167 361,156.5C 361.333,156.167 361.667,155.833 362,155.5C 363.298,156.946 363.465,158.279 362.5,159.5 Z"/></g>
<g><path style="opacity:1" fill="#fcc702" d="M 191.5,63.5 C 247.287,94.2675 302.62,125.934 357.5,158.5C 303.125,190.04 248.625,221.373 194,252.5C 139.217,221.081 84.3835,189.581 29.5,158C 83.727,126.726 137.727,95.2258 191.5,63.5 Z"/></g>
<g><path style="opacity:1" fill="#17130a" d="M 179.5,91.5 C 181.199,91.3398 182.866,91.5065 184.5,92C 189.518,95.5402 194.852,98.3735 200.5,100.5C 200.5,101.5 200.5,102.5 200.5,103.5C 186.779,110.197 173.446,117.697 160.5,126C 194.037,145.7 227.704,165.2 261.5,184.5C 262.833,185.167 262.833,185.833 261.5,186.5C 255.336,189.748 249.336,193.248 243.5,197C 239.887,197.208 236.554,196.208 233.5,194C 202.664,175.748 171.664,157.748 140.5,140C 137.217,139.257 134.217,139.924 131.5,142C 120.833,148.333 110.167,154.667 99.5,161C 96.366,161.79 93.366,161.457 90.5,160C 86.5,157.667 82.5,155.333 78.5,153C 77.1667,152 77.1667,151 78.5,150C 112.23,130.473 145.896,110.973 179.5,91.5 Z"/></g>
<g><path style="opacity:1" fill="#f5f5f5" d="M 180.5,95.5 C 184.81,96.9497 188.81,99.1164 192.5,102C 179.998,109.752 167.332,117.252 154.5,124.5C 153.167,125.5 153.167,126.5 154.5,127.5C 188.092,146.434 221.426,165.767 254.5,185.5C 250.009,187.912 245.675,190.579 241.5,193.5C 207.292,173.564 172.959,153.898 138.5,134.5C 125.042,141.73 111.709,149.23 98.5,157C 93.5373,156.857 89.204,155.024 85.5,151.5C 117.03,132.57 148.696,113.903 180.5,95.5 Z"/></g>
<g><path style="opacity:0.903" fill="#000000" d="M 897.5,110.5 C 916.358,109.277 932.358,115.277 945.5,128.5C 943.513,132.32 940.679,135.32 937,137.5C 922.096,123.151 904.929,119.651 885.5,127C 866.756,138.325 859.256,154.825 863,176.5C 871.087,200.295 887.587,210.461 912.5,207C 929.081,202.256 938.748,191.423 941.5,174.5C 929.167,174.5 916.833,174.5 904.5,174.5C 904.5,170.5 904.5,166.5 904.5,162.5C 921.5,162.5 938.5,162.5 955.5,162.5C 956.339,193.698 941.672,212.864 911.5,220C 882.524,222.268 862.358,210.102 851,183.5C 843.226,152.437 853.392,129.604 881.5,115C 886.821,112.941 892.155,111.441 897.5,110.5 Z"/></g>
<g><path style="opacity:0.923" fill="#000000" d="M 520.5,112.5 C 550.167,112.5 579.833,112.5 609.5,112.5C 609.5,116.5 609.5,120.5 609.5,124.5C 596.833,124.5 584.167,124.5 571.5,124.5C 571.5,155.833 571.5,187.167 571.5,218.5C 567.167,218.5 562.833,218.5 558.5,218.5C 558.5,187.167 558.5,155.833 558.5,124.5C 545.833,124.5 533.167,124.5 520.5,124.5C 520.5,120.5 520.5,116.5 520.5,112.5 Z"/></g>
<g><path style="opacity:0.932" fill="#000000" d="M 622.5,112.5 C 626.833,112.5 631.167,112.5 635.5,112.5C 635.5,128.167 635.5,143.833 635.5,159.5C 655.167,159.5 674.833,159.5 694.5,159.5C 694.5,143.833 694.5,128.167 694.5,112.5C 698.833,112.5 703.167,112.5 707.5,112.5C 707.5,147.833 707.5,183.167 707.5,218.5C 703.167,218.5 698.833,218.5 694.5,218.5C 694.5,202.833 694.5,187.167 694.5,171.5C 674.833,171.5 655.167,171.5 635.5,171.5C 635.5,187.167 635.5,202.833 635.5,218.5C 631.167,218.5 626.833,218.5 622.5,218.5C 622.5,183.167 622.5,147.833 622.5,112.5 Z"/></g>
<g><path style="opacity:0.944" fill="#000000" d="M 729.5,112.5 C 754.833,112.5 780.167,112.5 805.5,112.5C 805.5,116.5 805.5,120.5 805.5,124.5C 784.5,124.5 763.5,124.5 742.5,124.5C 742.5,136.167 742.5,147.833 742.5,159.5C 756.167,159.5 769.833,159.5 783.5,159.5C 783.5,163.167 783.5,166.833 783.5,170.5C 769.833,170.5 756.167,170.5 742.5,170.5C 742.5,182.833 742.5,195.167 742.5,207.5C 763.833,207.5 785.167,207.5 806.5,207.5C 806.5,211.167 806.5,214.833 806.5,218.5C 780.833,218.5 755.167,218.5 729.5,218.5C 729.5,183.167 729.5,147.833 729.5,112.5 Z"/></g>
<g><path style="opacity:0.921" fill="#000000" d="M 1003.5,112.5 C 1009.09,112.193 1014.59,112.527 1020,113.5C 1034.26,148.126 1048.43,182.793 1062.5,217.5C 1057.62,218.802 1052.78,218.802 1048,217.5C 1043.83,207.167 1039.67,196.833 1035.5,186.5C 1019.51,185.334 1003.51,185.167 987.5,186C 983.037,196.428 978.704,206.928 974.5,217.5C 969.88,218.493 965.214,218.827 960.5,218.5C 974.827,183.177 989.16,147.844 1003.5,112.5 Z M 1010.5,127.5 C 1011.79,128.058 1012.62,129.058 1013,130.5C 1018.64,145.097 1024.48,159.597 1030.5,174C 1017.84,174.5 1005.17,174.667 992.5,174.5C 998.497,158.845 1004.5,143.179 1010.5,127.5 Z"/></g>
<g><path style="opacity:0.932" fill="#000000" d="M 1073.5,112.5 C 1079.54,112.171 1085.54,112.504 1091.5,113.5C 1103.27,137.378 1114.77,161.378 1126,185.5C 1137.77,161.622 1149.27,137.622 1160.5,113.5C 1166.46,112.504 1172.46,112.171 1178.5,112.5C 1178.5,147.833 1178.5,183.167 1178.5,218.5C 1174.5,218.5 1170.5,218.5 1166.5,218.5C 1166.67,189.165 1166.5,159.831 1166,130.5C 1152.99,157.844 1139.49,184.844 1125.5,211.5C 1112.08,184.988 1098.91,158.321 1086,131.5C 1085.5,160.498 1085.33,189.498 1085.5,218.5C 1081.5,218.5 1077.5,218.5 1073.5,218.5C 1073.5,183.167 1073.5,147.833 1073.5,112.5 Z"/></g>
<g><path style="opacity:0.944" fill="#000000" d="M 1200.5,112.5 C 1225.83,112.5 1251.17,112.5 1276.5,112.5C 1276.5,116.5 1276.5,120.5 1276.5,124.5C 1255.5,124.5 1234.5,124.5 1213.5,124.5C 1213.5,136.167 1213.5,147.833 1213.5,159.5C 1227.17,159.5 1240.83,159.5 1254.5,159.5C 1254.5,163.167 1254.5,166.833 1254.5,170.5C 1240.83,170.5 1227.17,170.5 1213.5,170.5C 1213.5,182.833 1213.5,195.167 1213.5,207.5C 1234.83,207.5 1256.17,207.5 1277.5,207.5C 1277.5,211.167 1277.5,214.833 1277.5,218.5C 1251.83,218.5 1226.17,218.5 1200.5,218.5C 1200.5,183.167 1200.5,147.833 1200.5,112.5 Z"/></g>
<g><path style="opacity:0.919" fill="#161814" d="M 362.5,159.5 C 362.833,224.503 362.5,289.503 361.5,354.5C 306.139,386.178 250.806,417.845 195.5,449.5C 195.5,448.167 195.5,446.833 195.5,445.5C 250.032,414.404 304.365,383.071 358.5,351.5C 359.833,288.167 359.833,224.833 358.5,161.5C 359.514,160.326 360.847,159.66 362.5,159.5 Z"/></g>
<g><path style="opacity:1" fill="#d36f2b" d="M 30.5,162.5 C 28.5036,225.158 27.8369,288.158 28.5,351.5C 27.5009,288.336 27.1676,225.002 27.5,161.5C 28.791,161.263 29.791,161.596 30.5,162.5 Z"/></g>
<g><path style="opacity:1" fill="#73aa4f" d="M 357.5,162.5 C 357.5,161.833 357.833,161.5 358.5,161.5C 359.833,224.833 359.833,288.167 358.5,351.5C 358.832,288.331 358.499,225.331 357.5,162.5 Z"/></g>
<g><path style="opacity:1" fill="#f38032" d="M 30.5,162.5 C 84.1667,193.167 137.833,223.833 191.5,254.5C 191.832,318.002 191.499,381.336 190.5,444.5C 135.979,414.291 81.9793,383.291 28.5,351.5C 27.8369,288.158 28.5036,225.158 30.5,162.5 Z"/></g>
<g><path style="opacity:1" fill="#83c259" d="M 357.5,162.5 C 358.499,225.331 358.832,288.331 358.5,351.5C 304.365,383.071 250.032,414.404 195.5,445.5C 195.333,382.166 195.5,318.832 196,255.5C 249.48,223.845 303.313,192.845 357.5,162.5 Z"/></g>
<g><path style="opacity:1" fill="#121410" d="M 306.5,213.5 C 313.2,213.17 319.866,213.503 326.5,214.5C 328.987,215.576 331.32,216.91 333.5,218.5C 334.614,219.723 334.781,221.056 334,222.5C 329.707,229.585 325.54,236.751 321.5,244C 318.534,243.374 315.534,242.374 312.5,241C 308.179,240.501 303.846,240.334 299.5,240.5C 296.772,240.171 294.438,240.837 292.5,242.5C 277.145,249.344 264.979,260.011 256,274.5C 251.074,283.46 247.24,292.793 244.5,302.5C 242.978,307.748 242.311,313.248 242.5,319C 242.281,324.432 242.948,329.599 244.5,334.5C 248.933,348.221 258.266,353.388 272.5,350C 288.232,344.537 301.066,335.037 311,321.5C 314.096,316.298 317.429,311.298 321,306.5C 325.803,307.653 329.97,309.986 333.5,313.5C 334.583,314.365 334.749,315.365 334,316.5C 319.671,343.233 298.838,363.067 271.5,376C 244.001,383.339 227.168,373.172 221,345.5C 219.48,296.041 238.313,256.207 277.5,226C 283.623,222.272 289.956,219.105 296.5,216.5C 300.116,216.101 303.45,215.101 306.5,213.5 Z"/></g>
<g><path style="opacity:1" fill="#41602c" d="M 306.5,213.5 C 303.45,215.101 300.116,216.101 296.5,216.5C 299.452,214.59 302.786,213.59 306.5,213.5 Z"/></g>
<g><path style="opacity:1" fill="#8b8b8b" d="M 324.5,219.5 C 316.482,218.633 308.482,218.967 300.5,220.5C 300.611,219.883 300.944,219.383 301.5,219C 309.368,216.857 317.034,217.023 324.5,219.5 Z"/></g>
<g><path style="opacity:1" fill="#f6f6f6" d="M 324.5,219.5 C 325.609,220.29 326.942,220.79 328.5,221C 329.022,221.561 329.355,222.228 329.5,223C 326.381,228.069 323.381,233.235 320.5,238.5C 317.766,236.629 314.766,235.629 311.5,235.5C 307.689,234.355 303.689,234.188 299.5,235C 297.148,235.24 295.148,236.073 293.5,237.5C 276.841,244.651 263.674,255.984 254,271.5C 242.452,289.481 237.452,309.147 239,330.5C 242.817,352.332 255.317,360.165 276.5,354C 295.302,344.905 309.968,331.238 320.5,313C 322.958,313.394 325.291,314.394 327.5,316C 328.022,316.561 328.355,317.228 328.5,318C 315.658,342.348 296.658,359.848 271.5,370.5C 268.848,370.41 266.515,371.076 264.5,372.5C 263.833,372.5 263.167,372.5 262.5,372.5C 257.473,372.497 252.473,372.164 247.5,371.5C 239.595,368.958 233.762,363.958 230,356.5C 222.343,334.29 223.01,312.29 232,290.5C 242.206,266.29 257.706,246.124 278.5,230C 285.269,225.447 292.602,222.28 300.5,220.5C 308.482,218.967 316.482,218.633 324.5,219.5 Z"/></g>
<g><path style="opacity:1" fill="#18130f" d="M 77.5,218.5 C 92.5066,218.498 106.173,222.665 118.5,231C 135.888,244.723 150.055,261.223 161,280.5C 161.749,281.635 161.583,282.635 160.5,283.5C 156.703,285.467 153.036,287.634 149.5,290C 148.5,290.667 147.5,290.667 146.5,290C 136.219,269.379 120.552,254.713 99.5,246C 86.2807,243.407 77.114,248.241 72,260.5C 67.2714,293.977 77.438,322.143 102.5,345C 109.938,351.967 118.772,355.801 129,356.5C 134.197,356.581 138.697,354.914 142.5,351.5C 146.405,347.612 148.239,342.946 148,337.5C 136.085,330.793 124.252,323.96 112.5,317C 111.619,316.292 110.953,315.458 110.5,314.5C 110.5,307.833 110.5,301.167 110.5,294.5C 111.5,294.5 112.5,294.5 113.5,294.5C 121.735,298.954 130.068,303.454 138.5,308C 140.056,310.614 142.39,311.947 145.5,312C 147.056,314.614 149.39,315.947 152.5,316C 154.056,318.614 156.39,319.947 159.5,320C 163.397,323.531 167.564,326.697 172,329.5C 173.137,340.369 172.137,351.036 169,361.5C 159.315,381.492 143.815,387.659 122.5,380C 111.736,375.784 102.069,369.784 93.5,362C 67.6959,337.226 52.3625,307.059 47.5,271.5C 47.1528,263.059 47.8195,254.725 49.5,246.5C 49.595,244.214 50.2616,242.214 51.5,240.5C 53.5037,236.498 55.5037,232.498 57.5,228.5C 60.4835,225.674 63.8168,223.341 67.5,221.5C 71.1165,221.101 74.4498,220.101 77.5,218.5 Z"/></g>
<g><path style="opacity:1" fill="#703b17" d="M 77.5,218.5 C 74.4498,220.101 71.1165,221.101 67.5,221.5C 70.4525,219.59 73.7858,218.59 77.5,218.5 Z"/></g>
<g><path style="opacity:1" fill="#898989" d="M 90.5,224.5 C 84.7969,224.375 79.1302,224.708 73.5,225.5C 76.5256,223.981 79.8589,223.315 83.5,223.5C 86.0254,223.503 88.3587,223.837 90.5,224.5 Z"/></g>
<g><path style="opacity:1" fill="#f5f5f5" d="M 90.5,224.5 C 97.651,225.246 104.318,227.412 110.5,231C 129.611,242.776 144.611,258.443 155.5,278C 153.16,280.268 150.66,282.435 148,284.5C 136.643,265.078 120.809,250.578 100.5,241C 80.4412,237.269 68.9412,245.436 66,265.5C 65.0578,301.444 78.5578,330.611 106.5,353C 109.411,354.761 112.411,356.261 115.5,357.5C 116.911,359.539 118.911,360.539 121.5,360.5C 140.293,364.539 150.96,357.039 153.5,338C 153.415,336.893 153.081,335.893 152.5,335C 139.275,328.23 126.609,320.73 114.5,312.5C 114.334,308.486 114.501,304.486 115,300.5C 115.671,301.252 116.504,301.586 117.5,301.5C 134.218,310.104 150.552,319.437 166.5,329.5C 167.441,334.07 167.774,338.737 167.5,343.5C 166.678,352.125 164.011,360.125 159.5,367.5C 158.675,368.386 157.675,368.719 156.5,368.5C 156.5,369.5 156.5,370.5 156.5,371.5C 154.03,371.654 152.03,372.654 150.5,374.5C 145.026,376.545 139.36,377.545 133.5,377.5C 118.649,374.741 105.649,368.241 94.5,358C 63.7346,328.379 49.9013,292.212 53,249.5C 55.8377,243.152 59.1711,237.152 63,231.5C 66.3106,229.097 69.8106,227.097 73.5,225.5C 79.1302,224.708 84.7969,224.375 90.5,224.5 Z"/></g>
<g><path style="opacity:1" fill="#83451b" d="M 57.5,228.5 C 55.5037,232.498 53.5037,236.498 51.5,240.5C 51.9249,235.65 53.9249,231.65 57.5,228.5 Z"/></g>
<g><path style="opacity:1" fill="#505050" d="M 311.5,235.5 C 305.384,235.268 299.384,235.934 293.5,237.5C 295.148,236.073 297.148,235.24 299.5,235C 303.689,234.188 307.689,234.355 311.5,235.5 Z"/></g>
<g><path style="opacity:1" fill="#41602c" d="M 299.5,240.5 C 297.401,241.612 295.067,242.279 292.5,242.5C 294.438,240.837 296.772,240.171 299.5,240.5 Z"/></g>
<g><path style="opacity:1" fill="#d36f2b" d="M 191.5,254.5 C 192.832,318.001 192.832,381.668 191.5,445.5C 190.893,445.376 190.56,445.043 190.5,444.5C 191.499,381.336 191.832,318.002 191.5,254.5 Z"/></g>
<g><path style="opacity:1" fill="#9e5320" d="M 49.5,246.5 C 47.8195,254.725 47.1528,263.059 47.5,271.5C 46.2096,263.628 46.3762,255.628 48,247.5C 48.3826,246.944 48.8826,246.611 49.5,246.5 Z"/></g>
<g><path style="opacity:0.905" fill="#000000" d="M 573.5,290.5 C 587.465,289.741 600.465,292.908 612.5,300C 616.179,302.346 619.179,305.346 621.5,309C 619.333,312.5 616.5,315.333 613,317.5C 601.2,305.79 587.033,301.29 570.5,304C 550.188,310.601 539.188,324.601 537.5,346C 538.818,366.983 549.485,380.65 569.5,387C 586.103,390.132 600.603,385.965 613,374.5C 616.862,376.681 619.529,379.681 621,383.5C 605.33,398.379 586.83,403.545 565.5,399C 533.453,387.76 520.287,365.26 526,331.5C 531.156,314.681 541.656,302.514 557.5,295C 562.874,293.16 568.207,291.66 573.5,290.5 Z"/></g>
<g><path style="opacity:0.908" fill="#000000" d="M 681.5,290.5 C 718.19,291.023 738.523,309.523 742.5,346C 740.068,375.092 724.734,393.092 696.5,400C 668.345,403.01 648.178,391.844 636,366.5C 626.365,333.363 636.865,309.196 667.5,294C 672.224,292.506 676.891,291.339 681.5,290.5 Z M 678.5,303.5 C 704.329,301.326 720.829,312.66 728,337.5C 730.511,364.625 718.678,381.459 692.5,388C 666.576,388.408 651.076,375.908 646,350.5C 645.345,326.688 656.178,311.021 678.5,303.5 Z"/></g>
<g><path style="opacity:0.932" fill="#000000" d="M 758.5,292.5 C 764.537,292.171 770.537,292.504 776.5,293.5C 788.273,317.378 799.773,341.378 811,365.5C 822.773,341.622 834.273,317.622 845.5,293.5C 851.463,292.504 857.463,292.171 863.5,292.5C 863.5,327.833 863.5,363.167 863.5,398.5C 859.5,398.5 855.5,398.5 851.5,398.5C 851.667,369.165 851.5,339.831 851,310.5C 837.995,337.844 824.495,364.844 810.5,391.5C 797.077,364.988 783.911,338.321 771,311.5C 770.5,340.498 770.333,369.498 770.5,398.5C 766.5,398.5 762.5,398.5 758.5,398.5C 758.5,363.167 758.5,327.833 758.5,292.5 Z"/></g>
<g><path style="opacity:0.929" fill="#000000" d="M 885.5,292.5 C 905.213,292.062 924.88,292.562 944.5,294C 962.772,301.038 969.605,314.205 965,333.5C 960.574,344.652 952.408,351.485 940.5,354C 926.504,354.5 912.504,354.667 898.5,354.5C 898.5,369.167 898.5,383.833 898.5,398.5C 894.167,398.5 889.833,398.5 885.5,398.5C 885.5,363.167 885.5,327.833 885.5,292.5 Z M 898.5,304.5 C 912.559,304.071 926.559,304.571 940.5,306C 952.806,312.374 955.973,321.874 950,334.5C 945.168,340.165 939.001,342.998 931.5,343C 920.505,343.5 909.505,343.667 898.5,343.5C 898.5,330.5 898.5,317.5 898.5,304.5 Z"/></g>
<g><path style="opacity:0.921" fill="#000000" d="M 1014.5,292.5 C 1020.09,292.193 1025.59,292.527 1031,293.5C 1045.26,328.126 1059.43,362.793 1073.5,397.5C 1068.62,398.802 1063.78,398.802 1059,397.5C 1054.83,387.167 1050.67,376.833 1046.5,366.5C 1030.51,365.334 1014.51,365.167 998.5,366C 994.037,376.428 989.704,386.928 985.5,397.5C 980.88,398.493 976.214,398.827 971.5,398.5C 985.827,363.177 1000.16,327.844 1014.5,292.5 Z M 1021.5,307.5 C 1022.79,308.058 1023.62,309.058 1024,310.5C 1029.64,325.097 1035.48,339.597 1041.5,354C 1028.84,354.5 1016.17,354.667 1003.5,354.5C 1009.5,338.845 1015.5,323.179 1021.5,307.5 Z"/></g>
<g><path style="opacity:0.92" fill="#000000" d="M 1084.5,292.5 C 1088.85,292.334 1093.18,292.501 1097.5,293C 1118.03,319.899 1138.2,347.066 1158,374.5C 1158.5,347.169 1158.67,319.835 1158.5,292.5C 1162.83,292.5 1167.17,292.5 1171.5,292.5C 1171.5,327.833 1171.5,363.167 1171.5,398.5C 1167.49,398.666 1163.49,398.499 1159.5,398C 1138.54,369.922 1117.71,341.756 1097,313.5C 1096.5,341.831 1096.33,370.165 1096.5,398.5C 1092.5,398.5 1088.5,398.5 1084.5,398.5C 1084.5,363.167 1084.5,327.833 1084.5,292.5 Z"/></g>
<g><path style="opacity:0.905" fill="#000000" d="M 1182.5,292.5 C 1187.76,292.195 1192.93,292.529 1198,293.5C 1209,310.167 1220,326.833 1231,343.5C 1241.64,326.699 1252.47,310.032 1263.5,293.5C 1268.46,292.506 1273.46,292.173 1278.5,292.5C 1265.45,314.243 1251.62,335.576 1237,356.5C 1236.5,370.496 1236.33,384.496 1236.5,398.5C 1232.17,398.5 1227.83,398.5 1223.5,398.5C 1223.67,383.83 1223.5,369.163 1223,354.5C 1209.42,335.006 1196.09,315.34 1183,295.5C 1182.52,294.552 1182.35,293.552 1182.5,292.5 Z"/></g>
<g><path style="opacity:1" fill="#5c3013" d="M 113.5,294.5 C 112.5,294.5 111.5,294.5 110.5,294.5C 110.5,301.167 110.5,307.833 110.5,314.5C 109.509,307.687 109.175,300.687 109.5,293.5C 111.099,293.232 112.432,293.566 113.5,294.5 Z"/></g>
<g><path style="opacity:1" fill="#8e8e8e" d="M 117.5,301.5 C 116.504,301.586 115.671,301.252 115,300.5C 114.501,304.486 114.334,308.486 114.5,312.5C 113.515,308.366 113.182,304.032 113.5,299.5C 115.38,299.229 116.713,299.896 117.5,301.5 Z"/></g>
<g><path style="opacity:1" fill="#58833c" d="M 244.5,302.5 C 243.314,313.176 243.314,323.843 244.5,334.5C 242.948,329.599 242.281,324.432 242.5,319C 242.311,313.248 242.978,307.748 244.5,302.5 Z"/></g>
<g><path style="opacity:1" fill="#989898" d="M 166.5,329.5 C 167.805,331.397 168.471,333.731 168.5,336.5C 168.497,339.025 168.163,341.359 167.5,343.5C 167.774,338.737 167.441,334.07 166.5,329.5 Z"/></g>
<g><path style="opacity:1" fill="#858585" d="M 115.5,357.5 C 117.819,357.992 119.819,358.992 121.5,360.5C 118.911,360.539 116.911,359.539 115.5,357.5 Z"/></g>
<g><path style="opacity:1" fill="#767676" d="M 271.5,370.5 C 269.485,371.924 267.152,372.59 264.5,372.5C 266.515,371.076 268.848,370.41 271.5,370.5 Z"/></g>
<g><path style="opacity:1" fill="#737373" d="M 247.5,371.5 C 252.473,372.164 257.473,372.497 262.5,372.5C 260.696,373.162 258.696,373.495 256.5,373.5C 253.186,373.657 250.186,372.991 247.5,371.5 Z"/></g>
<g><path style="opacity:1" fill="#5d5d5d" d="M 150.5,374.5 C 148.239,376.255 145.572,377.422 142.5,378C 139.304,378.805 136.304,378.638 133.5,377.5C 139.36,377.545 145.026,376.545 150.5,374.5 Z"/></g>
</svg>
