<?xml version="1.0" encoding="utf-8"?>
<!DOCTYPE svg PUBLIC "-//W3C//DTD SVG 20010904//EN" "http://www.w3.org/TR/2001/REC-SVG-20010904/DTD/svg10.dtd">
<svg version="1.0" xmlns="http://www.w3.org/2000/svg" width="1320px" height="530px" viewBox="0 0 1320 530" preserveAspectRatio="xMidYMid meet">
 <g fill="#010101">
  <path d="M440.2 262.3 c0.2 -147.7 0.6 -222.8 1.3 -222.8 0.7 0 1.1 75.1 1.3 222.8 0.2 197.7 0 222.7 -1.3 222.7 -1.3 0 -1.5 -25 -1.3 -222.7z"/>
  <path d="M110 402.4 c-45.4 -26.1 -83.1 -48.2 -83.7 -49.1 -1 -1.3 -1.3 -22.6 -1.3 -98.3 l0 -96.7 83.5 -48.1 c45.9 -26.5 84.4 -48.2 85.5 -48.2 1.1 0 39.5 21.7 85.5 48.2 l83.5 48.2 0 96.6 c0 75.8 -0.3 97 -1.2 98.2 -0.7 0.9 -36.8 22 -80.3 46.8 -43.4 24.9 -80.7 46.3 -82.7 47.6 -2.1 1.3 -4.3 2.4 -5 2.3 -0.7 -0.1 -38.4 -21.4 -83.8 -47.5z"/>
  <path d="M566.1 398.4 c-23.6 -6.3 -40.1 -27.9 -40.1 -52.4 0 -15 5.2 -27.4 15.9 -37.9 8.2 -8 17.1 -12.7 28.3 -14.9 15 -2.9 31.8 1 44.3 10.3 3.3 2.5 6.1 4.9 6.2 5.3 0.1 0.4 -1.3 2.5 -3.2 4.7 l-3.4 4 -3.3 -3.1 c-8.6 -8 -19.8 -11.8 -33.3 -11.2 -7.9 0.3 -10.1 0.8 -15.9 3.7 -12.8 6.3 -21.4 18.1 -23.8 32.7 -2.3 13.5 2.7 28.2 12.6 37.8 16.4 15.9 41 16.5 59.6 1.5 l4.1 -3.3 3.7 3.7 3.7 3.8 -4 3.4 c-5.1 4.5 -18.4 11 -25.3 12.4 -7.2 1.5 -19.6 1.3 -26.1 -0.5z"/>
  <path d="M674.1 398.4 c-33.4 -9 -49.8 -46.2 -34 -77.5 4 -8.1 14.5 -18.4 22.9 -22.7 16 -8 32.2 -8 48.5 -0.2 9.6 4.6 16.9 11.4 22.4 20.9 5.3 8.9 7.3 16.4 7.3 27.1 0 20.2 -10.1 37.7 -27.4 47.3 -11.2 6.3 -27.4 8.4 -39.7 5.1z m22.1 -9.5 c12.7 -2.7 23.4 -11.3 29.5 -23.6 6 -12.1 5.7 -27.7 -0.7 -40.3 -6.7 -13.1 -24.6 -23.5 -39 -22.6 -25.6 1.6 -44.5 25.5 -40.2 50.8 4.2 24.6 26.9 40.7 50.4 35.7z"/>
  <path d="M760 346.5 l0 -52.5 7.8 0 7.9 0 17.4 36.2 c9.6 19.9 17.9 36.3 18.4 36.5 0.6 0.1 8.8 -16.2 18.4 -36.2 l17.4 -36.5 7.8 0 7.9 0 0 52.5 0 52.5 -5 0 -5 0 -0.2 -45.7 -0.3 -45.8 -17.7 36 c-9.8 19.8 -19 38.6 -20.6 41.8 l-2.7 5.8 -20 -41 c-11 -22.6 -20.3 -41.1 -20.7 -41.1 -0.5 0 -0.8 20.3 -0.8 45 l0 45 -5 0 -5 0 0 -52.5z"/>
  <path d="M887 346.5 l0 -52.5 26 0 c29.6 0 34.5 0.9 42.9 7.8 13 10.6 13 33.8 -0.2 44.6 -8.1 6.6 -12.7 7.6 -36.7 7.6 l-21 0 0 22.5 0 22.5 -5.5 0 -5.5 0 0 -52.5z m54.5 -3.6 c6 -2.1 11.1 -7.7 12.4 -13.8 1.7 -7.9 0.2 -13.1 -5.2 -18.9 -5 -5.2 -10.2 -6.2 -31.9 -6.2 l-18.8 0 0 20.6 0 20.6 19.8 -0.5 c12.6 -0.3 21.1 -1 23.7 -1.8z"/>
  <path d="M973.4 397.3 c0.4 -1 10.2 -24.7 21.8 -52.6 l21.1 -50.8 7 0.3 7.1 0.3 21.3 51.9 c11.7 28.6 21.3 52.2 21.3 52.3 0 0.2 -2.7 0.3 -6.1 0.1 l-6.1 -0.3 -6.5 -16.2 -6.5 -16.3 -25.2 0 -25.1 0 -6.5 16.5 -6.5 16.5 -5.9 0 c-5.1 0 -5.7 -0.2 -5.2 -1.7z m69.6 -42 c0 -2.1 -19.5 -49.3 -20.3 -49 -1.1 0.3 -20.6 48.4 -19.9 49.1 0.8 0.9 40.2 0.7 40.2 -0.1z"/>
  <path d="M1086 346.5 l0 -52.5 5.8 0.1 5.7 0 31 42 31 42 0.3 -42 0.2 -42.1 5.5 0 5.5 0 0 52.5 0 52.5 -4.8 0 -4.8 0 -32 -43.4 c-17.5 -23.9 -32.2 -43.5 -32.6 -43.5 -0.5 -0.1 -0.8 19.5 -0.8 43.4 l0 43.5 -5 0 -5 0 0 -52.5z"/>
  <path d="M1225 377.3 l0 -21.9 -20.1 -29.9 c-11 -16.5 -20.3 -30.3 -20.5 -30.7 -0.3 -0.5 2.5 -0.8 6.1 -0.8 l6.6 0 16.7 25.5 c9.2 14 17.1 25.3 17.6 25.2 0.6 -0.2 8.3 -11.5 17.4 -25.3 l16.4 -24.9 6.5 -0.3 c5.1 -0.2 6.3 0 5.7 1 -0.4 0.7 -9.6 14.4 -20.3 30.3 l-19.6 29 -0.5 22 -0.5 22 -5.7 0.3 -5.8 0.3 0 -21.8z"/>
  <path d="M890.3 218.5 c-18.6 -5 -34 -20.6 -38.8 -39.2 -1.9 -7.4 -1.9 -19.3 0 -26.8 5 -19.1 21.7 -34.9 41.2 -39 3.7 -0.8 8.8 -1.5 11.3 -1.5 11.7 0 28.3 6.1 36.8 13.5 l4.3 3.8 -3.7 3.8 -3.8 3.8 -4 -3.2 c-10.4 -8.3 -18.8 -11.1 -32 -10.5 -7.6 0.3 -10.2 0.9 -15.7 3.4 -17.1 8.1 -27.3 27.8 -24.1 46.6 3.2 18.5 16.9 32.7 34.9 36 11.6 2.1 25.2 -1.8 34.4 -10 5.1 -4.5 10.4 -14.3 11.5 -21 l0.7 -4.2 -18.7 0 -18.6 0 0 -5 0 -5 24.5 0 24.5 0 0 4.3 c-0.1 23.3 -16.3 44.4 -38.5 50.2 -7.3 1.8 -19.2 1.8 -26.2 0z"/>
  <path d="M560 171.5 l0 -47.5 -19 0 -19 0 0 -5 0 -5 43.5 0 43.5 0 0 5 0 5 -19 0 -19 0 0 47.5 0 47.5 -5.5 0 -5.5 0 0 -47.5z"/>
  <path d="M624 166.5 l0 -52.5 5.5 0 5.5 0 0 23.5 0 23.5 30.5 0 30.5 0 0 -23.5 0 -23.5 6 0 6 0 0 52.5 0 52.5 -6 0 -6 0 0 -24 0 -24 -30.5 0 -30.5 0 0 24 0 24 -5.5 0 -5.5 0 0 -52.5z"/>
  <path d="M731 166.5 l0 -52.5 37.5 0 37.5 0 0 5 0 5 -32 0 -32 0 0 18.5 0 18.5 20.5 0 20.5 0 0 5 0 5 -20.5 0 -20.5 0 0 19 0 19 32 0 32 0 0 5 0 5 -37.5 0 -37.5 0 0 -52.5z"/>
  <path d="M962.4 217.3 c0.4 -1 10.2 -24.7 21.8 -52.6 l21.1 -50.8 7 0.3 7.1 0.3 21.3 51.9 c11.7 28.6 21.3 52.2 21.3 52.3 0 0.2 -2.7 0.3 -6.1 0.1 l-6.1 -0.3 -6.5 -16.2 -6.5 -16.3 -25.2 0 -25.1 0 -6.5 16.5 -6.5 16.5 -5.9 0 c-5.1 0 -5.7 -0.2 -5.2 -1.7z m69.6 -42 c0 -2.1 -19.5 -49.3 -20.3 -49 -1.1 0.3 -20.6 48.4 -19.9 49.1 0.8 0.9 40.2 0.7 40.2 -0.1z"/>
  <path d="M1075 166.5 l0 -52.5 7.8 0 7.9 0 17.4 36.2 c9.6 19.9 17.9 36.3 18.4 36.5 0.6 0.1 8.8 -16.2 18.4 -36.2 l17.4 -36.5 7.8 0 7.9 0 0 52.5 0 52.5 -5 0 -5 0 -0.2 -45.7 -0.3 -45.8 -17.7 36 c-9.8 19.8 -19 38.6 -20.6 41.8 l-2.7 5.8 -20 -41 c-11 -22.6 -20.3 -41.1 -20.7 -41.1 -0.5 0 -0.8 20.3 -0.8 45 l0 45 -5 0 -5 0 0 -52.5z"/>
  <path d="M1202 166.5 l0 -52.5 37.5 0 37.5 0 0 5 0 5 -32 0 -32 0 0 18.5 0 18.5 20.5 0 20.5 0 0 5 0 5 -20.5 0 -20.5 0 0 19 0 19 32 0 32 0 0 5 0 5 -37.5 0 -37.5 0 0 -52.5z"/>
 </g>
 <g fill="#ffc902">
  <path d="M191 251 c-1.4 -1 -36.9 -21.5 -79 -45.5 -42.1 -24.1 -77.7 -44.5 -79.2 -45.4 l-2.8 -1.7 81.9 -47.3 82 -47.2 82 47.3 c45.1 26 81.7 47.6 81.3 48 -1.3 1.2 -162.2 93.8 -163 93.7 -0.4 0 -1.8 -0.8 -3.2 -1.9z m62.1 -58.6 c7.6 -4.3 9.7 -5.9 8.9 -6.9 -0.6 -0.7 -23.5 -14.2 -51 -30.1 -27.5 -15.8 -49.7 -29 -49.5 -29.2 0.2 -0.3 9.1 -5.5 19.7 -11.6 10.5 -6.1 19.3 -11.6 19.5 -12.2 0.4 -1.2 -15.6 -10.4 -18.2 -10.4 -1.9 0 -104.5 58.8 -104.5 59.9 0 0.3 4.3 3 9.5 5.9 l9.5 5.4 17.8 -10.2 c9.7 -5.6 19.1 -11.1 20.7 -12.1 l3 -1.8 51 29.4 c28.1 16.2 51.6 29.5 52.3 29.5 0.8 0 5.9 -2.5 11.3 -5.6z"/>
 </g>
 <g fill="#84c45a">
  <path d="M196.2 350.9 l0.3 -95.3 34.5 -19.9 c19 -11 55.7 -32 81.5 -46.8 l47 -27 0.3 94.8 c0.2 75 -0.1 95 -1 95.9 -0.7 0.6 -36.6 21.3 -79.8 45.9 -43.2 24.7 -79.5 45.5 -80.8 46.3 l-2.2 1.4 0.2 -95.3z m70.3 26.6 c24.2 -6.2 50.5 -29.2 66.6 -58.3 l2.4 -4.3 -2.5 -1.9 c-1.4 -1.1 -4.6 -3.1 -7.2 -4.5 l-4.6 -2.5 -4.7 7.7 c-9.7 16.5 -23.6 29.3 -37.5 35 -11.6 4.7 -24.4 2.4 -29.3 -5.1 -6.1 -9.2 -6.1 -9.3 -6.1 -23.6 0 -12.7 0.2 -14 3.3 -23 5.6 -15.8 11.1 -25.4 20.7 -35.9 9.4 -10.2 20.4 -17.3 30.4 -19.7 5.6 -1.3 14.1 -0.5 18.3 1.6 2.1 1.1 4.2 2 4.6 2 1.4 0 14.3 -22.9 13.9 -24.8 -0.2 -0.9 -2.5 -2.8 -5.2 -4.1 -4.1 -2.1 -6.4 -2.5 -13.5 -2.4 -5.1 0 -10.9 0.7 -14.2 1.7 -7 2.1 -22.7 10 -25.2 12.6 -1 1.1 -2.2 2 -2.7 2 -0.5 0 -5.8 4.8 -11.8 10.8 -25.8 25.6 -41.3 60.2 -41.4 92.1 0 12.3 1.2 18.2 5.2 26.6 4.5 9.2 8.8 13.4 17.4 16.9 6.8 2.8 15.1 3.2 23.1 1.1z"/>
 </g>
 <g fill="#f68233">
  <path d="M110 399.2 l-81.5 -46.7 -0.3 -95.7 -0.2 -95.7 67.2 38.6 c37 21.2 74.1 42.4 82.5 47.2 l15.2 8.6 0.1 95.3 c0 52.3 -0.3 95.2 -0.7 95.2 -0.5 0 -37.5 -21.1 -82.3 -46.8z m43.2 -18.8 c4.6 -2.3 7.4 -4.7 11.9 -10.2 2.1 -2.5 5 -10.4 6.4 -17 1.8 -8.4 1.9 -22.2 0.3 -24.4 -2 -2.6 -59 -34.9 -60.5 -34.4 -1.6 0.6 -1.9 17.7 -0.3 20.5 0.5 1 9.1 6.5 19.1 12.2 10 5.7 18.4 11 18.6 11.7 1 2.5 -1.8 9.4 -5.3 12.8 -21.1 20.4 -66.3 -20.3 -72.4 -65.3 -3.5 -25.2 6.8 -41.7 24.9 -40 6 0.6 16.1 4.7 21.6 8.9 6.6 5 19 18.5 24.1 26.4 3 4.6 5.9 8.6 6.4 8.9 0.6 0.3 3.9 -1.1 7.6 -3.1 7.8 -4.3 7.8 -4 0.2 -16.1 -8.7 -13.9 -20.1 -26.2 -36.4 -39 -2.9 -2.3 -18.2 -10.3 -20.6 -10.7 -0.7 -0.2 -3.3 -0.8 -5.8 -1.5 -2.8 -0.9 -7.5 -1.1 -12.5 -0.8 -9.1 0.6 -14.6 2.9 -20.4 8.8 -19.6 19.7 -14.8 67.6 10.8 106.4 5 7.7 5.6 8.5 12 15.9 23 26.9 51.9 39.2 70.3 30z"/>
 </g>
 <g fill="#ffffff">
  <path d="M125.5 376.1 c-14.2 -5.2 -21.7 -10 -33.7 -21.6 -12.3 -12.1 -22.8 -27.2 -29.6 -43 -2.5 -5.8 -5.3 -13.4 -5.7 -15.5 -0.1 -0.3 -1 -4.1 -2.1 -8.5 -2.6 -11.1 -2.7 -30.8 0 -38.4 5.1 -14.6 12.9 -22.1 25 -24.1 17.3 -2.8 37.4 7.1 57.9 28.3 9.3 9.7 19.3 23.8 18.4 26 -0.3 0.8 -2.1 2.3 -4.1 3.5 l-3.5 2.1 -5.5 -8.2 c-10.2 -15.3 -26.6 -29.4 -39.3 -33.8 -9.5 -3.3 -20.6 -2.3 -26.3 2.3 -3.4 2.8 -8.2 11.3 -9.5 17.2 -6.1 25.6 8 62.4 32.3 84.7 13.8 12.6 30 18.3 39.8 13.9 8.1 -3.5 12.7 -9.9 13.9 -19.7 l0.7 -4.9 -17.3 -9.9 c-24.5 -13.8 -22.9 -12.5 -22.9 -19.6 0 -4.4 0.4 -5.9 1.4 -5.9 0.8 0 13.1 6.7 27.3 14.9 l25.8 14.9 -0.1 8.5 c-0.3 16.8 -6.2 28.9 -17.3 35.5 -5.9 3.4 -18.1 4.1 -25.6 1.3z"/>
  <path d="M249.3 372.5 c-12 -3.6 -19.8 -12.8 -22.8 -27.1 -6.7 -31.4 9.1 -73.4 38.1 -102 10 -9.8 19.2 -15.8 33.5 -21.7 8 -3.3 18.7 -3.7 27.2 -1.1 4.9 1.5 4.9 2.2 0.6 10.3 l-4.2 7.7 -5.1 -1.8 c-21.2 -7.3 -49.3 11.1 -66.4 43.5 -14.9 28.1 -15 59.6 -0.2 72 1.7 1.5 3.9 2.7 4.9 2.7 1 0 2.1 0.3 2.5 0.7 0.4 0.4 3.2 0.9 6.2 1.1 15.9 1 37.7 -13.9 52.6 -36 l5.2 -7.7 3.8 2 c2.1 1.1 3.8 2.6 3.8 3.3 0 0.8 -2.3 4.9 -5.1 9.1 -11.8 17.6 -30.2 34.2 -45.3 40.9 -9.6 4.3 -22.6 6.1 -29.3 4.1z"/>
  <path d="M190.6 164.4 c-27.9 -16.2 -51.3 -29.4 -51.8 -29.4 -0.6 0 -10 5.2 -20.9 11.5 -11 6.3 -20.3 11.5 -20.8 11.5 -0.5 0 -3 -1.2 -5.5 -2.6 -4.7 -2.6 -5.3 -4 -2.5 -5.5 0.8 -0.5 4.5 -2.6 8.3 -4.9 3.7 -2.2 6.9 -4 7.1 -4 0.2 0 3.9 -2.1 8.2 -4.7 4.3 -2.5 10.3 -6 13.3 -7.6 5.1 -2.9 28.6 -16.6 32 -18.7 0.8 -0.5 4.2 -2.4 7.5 -4.3 3.3 -1.8 8.6 -4.8 11.7 -6.6 l5.7 -3.2 5.7 3.2 5.6 3.2 -3.4 2.1 c-2 1.2 -11 6.4 -20.1 11.6 -9.2 5.2 -16.7 10 -16.7 10.5 0 0.6 22.7 14.1 50.5 30 l50.5 29 -2.8 2.2 c-1.5 1.3 -3.1 2.3 -3.5 2.3 -0.5 0 -2 0.9 -3.4 2 -1.4 1.1 -2.8 2 -3.2 1.9 -0.3 0 -23.5 -13.3 -51.5 -29.5z"/>
 </g>
</svg>