<?xml version="1.0" encoding="utf-8"?>
<!DOCTYPE svg PUBLIC "-//W3C//DTD SVG 20010904//EN" "http://www.w3.org/TR/2001/REC-SVG-20010904/DTD/svg10.dtd">
<svg version="1.0" xmlns="http://www.w3.org/2000/svg" width="395px" height="443px" viewBox="0 0 395 443" preserveAspectRatio="xMidYMid meet">
 <g fill="#030303">
  <path d="M110.8 358.1 c-45 -25.7 -82.7 -47.6 -83.8 -48.6 -2 -1.8 -2 -2.4 -1.8 -98.9 l0.3 -97 83 -47.8 c45.7 -26.2 84 -47.7 85.3 -47.8 1.2 0 38.8 21 83.3 46.6 44.6 25.6 82.2 47 83.5 47.6 l2.4 1.1 0 96.7 c0 75.8 -0.3 97 -1.2 98.2 -0.7 0.9 -36.8 22 -80.3 46.8 -43.4 24.9 -80.7 46.3 -82.7 47.6 -2.1 1.3 -4.3 2.4 -5 2.3 -0.7 0 -38.1 -21.1 -83 -46.8z"/>
 </g>
 <g fill="#84c45a">
  <path d="M196.2 306 l0.3 -95.3 81.5 -46.8 81.5 -46.8 0.3 94.6 c0.2 75 -0.1 95 -1 95.9 -0.7 0.6 -36.6 21.3 -79.8 45.9 -43.2 24.7 -79.5 45.5 -80.8 46.3 l-2.2 1.4 0.2 -95.2z m70.3 26.5 c24.2 -6.2 50.5 -29.2 66.6 -58.3 l2.4 -4.3 -2.5 -1.9 c-1.4 -1.1 -4.6 -3.1 -7.2 -4.5 l-4.6 -2.5 -4.7 7.7 c-9.7 16.5 -23.6 29.3 -37.5 35 -11.6 4.7 -24.4 2.4 -29.3 -5.1 -6.1 -9.2 -6.1 -9.3 -6.1 -23.6 0 -12.7 0.2 -14 3.3 -23 5.6 -15.8 11.1 -25.4 20.7 -35.9 9.4 -10.2 20.4 -17.3 30.4 -19.7 5.6 -1.3 14.1 -0.5 18.3 1.6 2.1 1.1 4.2 2 4.6 2 1.4 0 14.3 -22.9 13.9 -24.8 -0.2 -0.9 -2.5 -2.8 -5.2 -4.1 -4.1 -2.1 -6.4 -2.5 -13.5 -2.4 -5.1 0 -10.9 0.7 -14.2 1.7 -7 2.1 -22.7 10 -25.2 12.6 -1 1.1 -2.2 2 -2.7 2 -0.5 0 -5.8 4.8 -11.8 10.8 -25.8 25.6 -41.3 60.2 -41.4 92.1 0 12.3 1.2 18.2 5.2 26.6 4.5 9.2 8.8 13.4 17.4 16.9 6.8 2.8 15.1 3.2 23.1 1.1z"/>
 </g>
 <g fill="#f68233">
  <path d="M110.3 354.7 l-82.3 -47.1 0 -95.4 0 -95.4 2.3 1.4 c1.2 0.8 38.3 22.1 82.5 47.3 l80.2 45.8 0 95.4 c0 52.4 -0.1 95.3 -0.2 95.2 -0.2 0 -37.3 -21.3 -82.5 -47.2z m43.7 -19.3 c9.2 -5 15.1 -14 17.6 -27.1 1.4 -7.6 1.8 -19.1 0.8 -22.9 -0.4 -1.5 -9.1 -7 -29.8 -18.7 -16 -9.2 -29.9 -16.7 -30.9 -16.7 -1.5 0 -1.7 1.2 -1.7 9.7 0 7.6 0.3 10 1.7 11.5 0.9 1 9.7 6.5 19.5 12 20 11.5 19.8 11.3 15.2 19.8 -6.3 11.5 -22.5 12.1 -38.2 1.3 -6.4 -4.4 -18.2 -16.8 -22.8 -24 -11.3 -17.7 -16.9 -38.8 -14.5 -54.9 3.1 -21.3 17.1 -28.8 37.3 -20 4 1.7 16.1 10.6 19.3 14.1 1.1 1.2 3.6 3.9 5.5 6.1 2 2.1 6.2 7.8 9.3 12.7 l5.8 8.7 6.9 -3.7 c3.9 -2 7 -4 7 -4.5 0 -3.1 -9.4 -17.9 -17 -26.8 -15.2 -17.6 -30.4 -28.9 -46.3 -34.4 -16.3 -5.6 -29.1 -3.4 -39.1 7 -8.8 9.1 -12.1 20.9 -11.2 40.4 0.8 19.2 6.6 38 17.8 57.5 14.2 24.8 37.3 46.3 57.4 53.4 7.9 2.7 9.7 3 18.1 2.6 5.6 -0.3 8.4 -1 12.3 -3.1z"/>
 </g>
 <g fill="#ffc902">
  <path d="M111.8 161.2 c-60.8 -34.7 -81.4 -47 -80.5 -47.8 2.5 -2.3 161.3 -92.8 162.7 -92.8 1.3 0 161.4 91.5 163.2 93.2 0.7 0.7 -159.9 93.4 -162.4 93.9 -0.7 0.2 -38.1 -20.8 -83 -46.5z m141.9 -13.8 c7.9 -4.6 9.3 -5.8 8.2 -6.9 -0.8 -0.7 -23.6 -14 -50.7 -29.5 -27.1 -15.5 -49.2 -28.6 -49 -29.1 0.2 -0.5 8.8 -5.8 19.2 -11.7 10.5 -6 19.1 -11.3 19.3 -11.9 0.4 -1 -12.6 -9 -17 -10.6 -1.2 -0.4 -17.7 8.6 -52.5 28.4 -27.9 16 -51.3 29.7 -52.1 30.4 -1.1 1.1 0 2 6 5.6 12.6 7.3 9.8 7.8 32.9 -5.5 17 -9.8 20.7 -11.6 22.4 -10.7 1.2 0.5 23.9 13.6 50.6 29 26.7 15.4 49.6 28 50.8 28 1.3 0.1 6.7 -2.4 11.9 -5.5z"/>
 </g>
 <g fill="#ffffff">
  <path d="M128 332 c-13.4 -3.6 -24.3 -10.3 -37.1 -23 -19.7 -19.6 -32.7 -44.3 -37.5 -71.3 -2.8 -16.1 -1.5 -28.8 4.2 -40.2 5.6 -11 12.7 -16.1 24.1 -17.1 5.1 -0.5 8.3 -0.1 17 2 9.9 2.3 27.2 14.3 39.3 27.4 9.3 10 19.2 24.2 18 25.7 -0.5 0.6 -2.5 1.9 -4.6 3 -2.7 1.4 -3.8 1.7 -4.1 0.8 -0.6 -1.7 -11 -16 -14.8 -20.2 -4.1 -4.6 -16.8 -14.7 -21.9 -17.3 -13.5 -7.2 -25 -7.3 -34.1 -0.3 -7.8 5.9 -11.8 21.6 -9.7 38.1 4.4 34.8 28.5 67.4 56.9 77 9.7 3.3 20.6 -0.2 25.6 -8.1 2.9 -4.5 5.3 -13.4 4.4 -15.8 -0.3 -0.8 -9 -6.3 -19.4 -12.2 -10.3 -5.9 -19.1 -11.3 -19.5 -11.9 -0.4 -0.6 -0.8 -3.7 -0.8 -6.9 0 -4.4 0.3 -5.8 1.3 -5.5 0.8 0.2 13.2 7.1 27.7 15.3 l26.2 15 -0.6 8.5 c-0.9 13.8 -4.9 24.6 -11.1 30.4 -7.8 7.4 -17.8 9.6 -29.5 6.6z"/>
  <path d="M249.3 327.5 c-12 -3.6 -19.8 -12.8 -22.8 -27.1 -6.7 -31.4 9.1 -73.4 38.1 -102 10 -9.8 19.2 -15.8 33.5 -21.7 8 -3.3 18.7 -3.7 27.2 -1.1 4.9 1.5 4.9 2.2 0.6 10.3 l-4.2 7.7 -5.1 -1.8 c-21.2 -7.3 -49.3 11.1 -66.4 43.5 -14.9 28.1 -15 59.6 -0.2 72 1.7 1.5 3.9 2.7 4.9 2.7 1 0 2.1 0.3 2.5 0.7 0.4 0.4 3.2 0.9 6.2 1.1 15.9 1 37.7 -13.9 52.6 -36 l5.2 -7.7 3.8 2 c2.1 1.1 3.8 2.6 3.8 3.3 0 0.8 -2.3 4.9 -5.1 9.1 -11.8 17.6 -30.2 34.2 -45.3 40.9 -9.6 4.3 -22.6 6.1 -29.3 4.1z"/>
  <path d="M190.5 119.9 c-27.5 -15.9 -50.7 -28.9 -51.6 -28.9 -1 0 -10.8 5.2 -21.9 11.5 l-20.1 11.6 -3.7 -2.2 c-7.9 -4.8 -7.8 -4.4 -3 -7.2 2.4 -1.3 5.9 -3.4 7.8 -4.4 6.9 -3.9 14.5 -8.4 16 -9.3 0.8 -0.5 4 -2.3 7 -4 3 -1.6 7.4 -4.1 9.6 -5.4 17.4 -10.2 28.6 -16.6 29.1 -16.6 0.4 0 1.4 -0.6 2.2 -1.4 0.9 -0.7 4.8 -3 8.6 -5.1 13.3 -7.3 11.8 -7 17.5 -3.8 2.7 1.5 4.9 3.2 4.7 3.7 -0.2 0.5 -8.8 5.8 -19.3 11.8 -10.4 5.9 -18.9 11.3 -18.9 11.9 0 0.7 21.7 13.6 48.2 28.9 26.5 15.2 49.2 28.3 50.4 29.1 2.2 1.5 2.1 1.6 -4.3 5.2 -3.7 2 -7 3.7 -7.5 3.6 -0.4 -0.1 -23.3 -13.1 -50.8 -29z"/>
 </g>
</svg>